<svg xmlns="http://www.w3.org/2000/svg" viewBox="0 0 1200 630" role="img" aria-labelledby="title desc">
  <title id="title">NxV2Net 裂缝分割项目缩略图</title>
  <desc id="desc">嵌套多尺度裂缝分割网络项目图。</desc>
  <rect width="1200" height="630" fill="#f8fafc"/>
  <rect x="64" y="64" width="1072" height="502" rx="8" fill="#ffffff" stroke="#dbe3ef" stroke-width="3"/>
  <text x="104" y="145" font-family="Inter, Arial, sans-serif" font-size="42" font-weight="700" fill="#172033">NxV2Net</text>
  <text x="104" y="191" font-family="Inter, Arial, sans-serif" font-size="24" fill="#526173">Nested multiscale crack segmentation</text>
  <path d="M145 382c108-148 184-55 287-166 66-70 136-38 202 22 95 86 204-12 330-41" fill="none" stroke="#172033" stroke-width="16" stroke-linecap="round"/>
  <path d="M145 382c108-148 184-55 287-166 66-70 136-38 202 22 95 86 204-12 330-41" fill="none" stroke="#0f766e" stroke-width="6" stroke-linecap="round"/>
  <rect x="145" y="445" width="162" height="40" rx="8" fill="#eef4ff"/>
  <text x="170" y="472" font-family="Inter, Arial, sans-serif" font-size="20" fill="#2563eb">66.51 mIoU</text>
  <rect x="330" y="445" width="162" height="40" rx="8" fill="#f0fdfa"/>
  <text x="355" y="472" font-family="Inter, Arial, sans-serif" font-size="20" fill="#0f766e">VNet units</text>
  <rect x="515" y="445" width="210" height="40" rx="8" fill="#fff7ed"/>
  <text x="540" y="472" font-family="Inter, Arial, sans-serif" font-size="20" fill="#9a5b12">Multiscale fusion</text>
</svg>
