<svg xmlns="http://www.w3.org/2000/svg" viewBox="0 0 1200 630" role="img" aria-labelledby="title desc">
  <title id="title">星语 Vision 项目缩略图</title>
  <desc id="desc">图像编码器、视觉 token 和文本模型的多模态推理流程。</desc>
  <rect width="1200" height="630" fill="#f8fafc"/>
  <rect x="64" y="64" width="1072" height="502" rx="8" fill="#ffffff" stroke="#d8e2ec" stroke-width="3"/>
  <text x="104" y="142" font-family="Inter, Arial, sans-serif" font-size="42" font-weight="700" fill="#172033">XY-Vision</text>
  <text x="104" y="188" font-family="Inter, Arial, sans-serif" font-size="24" fill="#526173">CLIP visual encoder + text Transformer</text>
  <rect x="112" y="260" width="220" height="180" rx="8" fill="#e7f0ff" stroke="#8fb4ff" stroke-width="2"/>
  <circle cx="185" cy="332" r="38" fill="#2563eb" opacity=".18"/>
  <path d="M148 390c45-62 82-78 132-32l33 32" fill="none" stroke="#2563eb" stroke-width="10" stroke-linecap="round"/>
  <text x="145" y="482" font-family="Inter, Arial, sans-serif" font-size="23" fill="#172033">Image</text>
  <path d="M370 350h128" stroke="#91a3b5" stroke-width="8" stroke-linecap="round"/>
  <path d="M488 326l34 24-34 24" fill="none" stroke="#91a3b5" stroke-width="8" stroke-linecap="round" stroke-linejoin="round"/>
  <rect x="548" y="260" width="220" height="180" rx="8" fill="#e9fbf4" stroke="#5cc59f" stroke-width="2"/>
  <text x="590" y="340" font-family="Inter, Arial, sans-serif" font-size="30" font-weight="700" fill="#0f766e">Visual</text>
  <text x="597" y="380" font-family="Inter, Arial, sans-serif" font-size="30" font-weight="700" fill="#0f766e">Tokens</text>
  <text x="575" y="482" font-family="Inter, Arial, sans-serif" font-size="23" fill="#172033">Fusion</text>
  <path d="M807 350h128" stroke="#91a3b5" stroke-width="8" stroke-linecap="round"/>
  <path d="M925 326l34 24-34 24" fill="none" stroke="#91a3b5" stroke-width="8" stroke-linecap="round" stroke-linejoin="round"/>
  <rect x="984" y="260" width="120" height="180" rx="8" fill="#fff7ed" stroke="#f2b66d" stroke-width="2"/>
  <text x="1014" y="335" font-family="Inter, Arial, sans-serif" font-size="26" font-weight="700" fill="#9a5b12">Text</text>
  <text x="1004" y="375" font-family="Inter, Arial, sans-serif" font-size="26" font-weight="700" fill="#9a5b12">LLM</text>
  <text x="984" y="482" font-family="Inter, Arial, sans-serif" font-size="23" fill="#172033">Answer</text>
</svg>
